{"title":"Josh_Groban_Regis_SONG_ONLY_720p_20110215_TTL","uid":6187700,"size":89729313,"categoryP":"video","categoryS":"hd___tv_shows","magnet":"?xt=urn:btih:3ca2e010c76d8cced7c0606b5aadd9de3e805326&amp;dn=Josh_Groban_Regis_SONG_ONLY_720p_20110215_TTL&amp;tr=udp%3A%2F%2Ftracker.openbittorrent.com%3A80&amp;tr=udp%3A%2F%2Fopen.demonii.com%3A1337&amp;tr=udp%3A%2F%2Ftracker.coppersurfer.tk%3A6969&amp;tr=udp%3A%2F%2Fexodus.desync.com%3A6969","seeders":0,"leechers":1,"uploader":"thetorrentlord","files":3,"time":1298168714,"description":"This is just the live performance of th song including an MP3. Enjoy and please share.                                           ******************************************  Regis_Josh_Groban_SONG_ONLY_720p_20110215_TTL.avi\nFormat                           : AVI\nFormat/Info                      : Audio Video Interleave\nFile size                        : 79.8 MiB\nDuration                         : 5mn 2s\nOverall bit rate                 : 2 217 Kbps\nDirector                         : created.with.SUPER(C).v2010.bld.37\nWriting application              : SUPER(C) - by eRightSoft\n\nVideo\nID                               : 0\nFormat                           : MPEG-4 Visual\nFormat profile                   : Advanced Simple@L5\nFormat settings, BVOP            : Yes\nFormat settings, QPel            : No\nFormat settings, GMC             : No warppoints\nFormat settings, Matrix          : Default (MPEG)\nCodec ID                         : XVID\nCodec ID/Hint                    : XviD\nDuration                         : 2mn 31s\nBit rate                         : 4 308 Kbps\nWidth                            : 1 280 pixels\nHeight                           : 720 pixels\nDisplay aspect ratio             : 16:9\nFrame rate                       : 29.970 fps\nResolution                       : 8 bits\nColorimetry                      : 4:2:0\nScan type                        : Progressive\nBits/(Pixel*Frame)               : 0.156\nStream size                      : 77.6 MiB (97%)\nWriting library                  : XviD 1.1.2 (UTC 2006-11-01)\n\nAudio\nID                               : 1\nFormat                           : MPEG Audio\nFormat version                   : Version 2\nFormat profile                   : Layer 3\nCodec ID                         : 55\nCodec ID/Hint                    : MP3\nDuration                         : 5mn 2s\nBit rate mode                    : Constant\nBit rate                         : 112 Kbps\nChannel(s)                       : 2 channels\nSampling rate                    : 22.05 KHz\nVideo delay                      : 33ms\nStream size                      : 2.02 MiB (3%)\nAlignment                        : Aligned on interleaves\nInterleave, duration             : 26 ms (0.78 video frame)\nInterleave, preload duration     : 522 ms\nWriting library                  : LAME3.97Ã‚Âª\u0010\u0010\n\n","torrent":{"xt":"urn:btih:3ca2e010c76d8cced7c0606b5aadd9de3e805326","amp;dn":"Josh_Groban_Regis_SONG_ONLY_720p_20110215_TTL","amp;tr":["udp%3A%2F%2Ftracker.openbittorrent.com%3A80","udp%3A%2F%2Fopen.demonii.com%3A1337","udp%3A%2F%2Ftracker.coppersurfer.tk%3A6969","udp%3A%2F%2Fexodus.desync.com%3A6969"],"infoHash":"3ca2e010c76d8cced7c0606b5aadd9de3e805326","infoHashBuffer":{"type":"Buffer","data":[60,162,224,16,199,109,140,206,215,192,96,107,90,173,217,222,62,128,83,38]},"announce":[],"urlList":[]}}